# xmcd CD database file
#
# Track frame offsets:
#	182
#	17932
#	36710
#	58722
#	72800
#	94270
#	112305
#	132305
#	145410
#	163450
#
# Disc length: 2409 seconds
#
# Revision: 2
# Processed by: cddbd v1.4PL0 Copyright (c) Steve Scherf et al.
# Submitted via: CDex 1.40Release
#
DISCID=a309670a
DTITLE=John Michael Montgomery - Leave A Mark
DYEAR=1998
DGENRE=Country
TTITLE0=Cover You In Kisses
TTITLE1=Hold On To Me
TTITLE2=Little Cowboy's Cry
TTITLE3=It Gets Me Every Time
TTITLE4=I Don't Want This Song To End
TTITLE5=Love Working On You
TTITLE6=I Couldn't Dream
TTITLE7=You're The Ticket
TTITLE8=I Never Stopped Lovin' You
TTITLE9=This One's Gonna 'Leave A Mark'
EXTD=Shellimark Entertainment *Salt Lake City, UT*\nThe Coolest DJ's In Town\nMarc Taylor\nshellimark@hotmail.com YEAR: 1998 ID3G: 2
EXTT0=
EXTT1=
EXTT2=
EXTT3=
EXTT4=
EXTT5=
EXTT6=
EXTT7=
EXTT8=
EXTT9=
PLAYORDER=
